<?xml version="1.0" standalone="no"?>
<!DOCTYPE svg PUBLIC "-//W3C//DTD SVG 20010904//EN" "http://www.w3.org/TR/2001/REC-SVG-20010904/DTD/svg10.dtd">
<svg xmlns="http://www.w3.org/2000/svg" version="1.0" width="350.000000pt" height="65.000000pt" viewBox="0 0 350.000000 65.000000" preserveAspectRatio="xMidYMid meet">
<metadata>
Created by potrace 1.16, written by Peter Selinger 2001-2019
<meta name="Producer" content="Online-Convert"/></metadata>
<g transform="translate(0.000000,65.000000) scale(0.100000,-0.100000)" fill="#000000" stroke="none">
<path d="M1004 621 c-22 -10 -57 -33 -78 -52 -31 -27 -41 -31 -54 -21 -47 34 -61 36 -160 22 -136 -18 -142 -21 -142 -69 0 -45 11 -51 96 -51 28 0 73 -3 99 -7 l49 -6 -102 -23 c-56 -13 -106 -26 -112 -29 -10 -6 17 -74 35 -87 6 -4 35 -12 65 -18 113 -22 110 -20 52 -39 -64 -22 -66 -24 -53 -49 19 -35 71 -72 102 -72 31 0 39 -17 13 -27 -13 -5 -12 -9 7 -29 24 -25 92 -34 104 -14 3 6 -1 10 -9 10 -33 0 -14 19 26 25 25 5 51 17 66 34 l24 26 -38 7 c-22 4 -66 10 -99 14 l-60 7 31 13 c17 7 73 20 125 29 101 18 113 23 135 67 12 23 12 29 2 33 -13 4 -222 24 -268 26 -24 0 -24 0 -3 9 12 5 84 19 160 31 76 12 143 26 149 31 14 11 24 67 13 74 -5 3 -64 12 -131 20 -68 8 -130 16 -138 17 -8 2 39 11 105 21 151 22 155 23 155 46 0 48 -91 65 -166 31z"/>
<path d="M83 519 c-40 -12 -63 -43 -63 -87 0 -52 15 -70 75 -88 67 -19 85 -44 54 -75 -21 -21 -31 -21 -102 -4 -19 5 -28 2 -36 -14 -13 -24 1 -34 62 -45 91 -17 157 25 157 99 0 35 -5 48 -29 68 -16 13 -45 27 -64 31 -19 4 -40 13 -47 21 -28 34 42 61 90 35 15 -8 22 -5 34 12 15 21 15 23 -7 34 -34 17 -89 23 -124 13z"/>
<path d="M1333 500 c-44 -26 -63 -68 -63 -135 0 -78 23 -123 74 -146 50 -23 66 -23 113 -4 34 15 35 16 19 34 -14 16 -22 17 -46 8 -25 -10 -34 -8 -57 9 -24 18 -28 29 -31 80 -4 75 3 100 32 119 18 12 29 13 52 5 24 -9 31 -8 42 7 11 15 10 20 -5 30 -25 19 -94 16 -130 -7z"/>
<path d="M262 428 c2 -17 11 -24 31 -26 l27 -3 0 -95 0 -94 30 0 30 0 0 94 0 95 33 3 c24 2 33 8 35 26 3 21 1 22 -93 22 -94 0 -96 -1 -93 -22z"/>
<path d="M1500 443 c0 -5 16 -34 34 -65 26 -42 36 -71 38 -110 3 -52 4 -53 36 -56 l32 -3 0 53 c0 30 6 62 13 73 8 11 26 41 41 68 l28 47 -35 0 c-30 0 -36 -5 -52 -40 -10 -22 -21 -40 -25 -40 -4 0 -15 18 -25 40 -16 35 -22 40 -52 40 -18 0 -33 -3 -33 -7z"/>
<path d="M1750 330 l0 -120 30 0 c29 0 30 2 30 45 0 25 3 45 8 45 4 0 19 -20 34 -45 25 -40 31 -45 64 -45 l36 0 -16 25 c-50 78 -48 70 -26 90 13 12 20 31 20 56 0 53 -26 69 -112 69 l-68 0 0 -120z"/>
<path d="M1990 329 l0 -120 33 3 32 3 3 118 3 117 -36 0 -35 0 0 -121z"/>
<path d="M2176 442 c-3 -6 -24 -60 -46 -121 l-39 -111 30 0 c22 0 32 6 39 25 8 21 16 25 49 25 33 0 40 -4 45 -25 5 -20 13 -25 36 -25 17 0 30 4 30 8 0 5 -17 58 -39 118 -37 104 -40 109 -69 112 -17 2 -33 -1 -36 -6z"/>
<path d="M2360 330 l0 -120 30 0 c28 0 29 1 32 57 l3 57 38 -57 c34 -52 41 -57 73 -57 39 0 40 -1 -13 71 -18 26 -33 51 -33 55 0 5 16 33 35 62 l36 52 -35 0 c-32 0 -39 -6 -71 -52 l-35 -53 0 53 c0 51 0 52 -30 52 l-30 0 0 -120z"/>
</g>
</svg>
